#!OML:ASF C:\Vicon Data\Big\jianyuan-13\jianyuan\Session 1\Capture.male.ASF
:FULLY-SPECIFIED
:DEGREES
56
root -8.118759 17.381231 -21.127872 10.205450 6.778081 0.867235
lowerback -8.573428 0.125743 -1.539110 
upperback -0.623144 0.251028 0.205395 
thorax 4.153945 0.071138 1.107239 
lowerneck -6.681733 -3.145562 3.549639 
upperneck 4.020993 -4.341566 -3.395240 
head 2.281724 -2.212639 -1.877645 
rclavicle 0.000000 0.000000 
rhumerus -40.012184 -20.357923 -79.272851 
rradius 30.225476 
rwrist 28.697180 
rhand -18.691880 -15.985762 
rfingers 0.000000 
rthumb 7.602529 -45.829197 
lclavicle 0.000000 0.000000 
lhumerus -30.254298 22.423659 82.710894 
lradius 29.401397 
lwrist -48.647737 
lhand -23.021352 -0.679387 
lfingers 0.000000 
lthumb 3.422474 29.272889 
rfemur -21.219271 5.041382 21.828995 
rtibia 24.913528 
rfoot -14.381185 -0.202753 
rtoes -24.269461 
lfemur -26.350547 -6.595396 -18.732797 
ltibia 43.342292 
lfoot -16.507063 4.635333 
ltoes -24.280225 
57
root -8.123544 17.378505 -21.086097 10.181288 6.818675 0.809164
lowerback -8.512577 0.142268 -1.470454 
upperback -0.596538 0.267247 0.210496 
thorax 4.147374 0.081050 1.075661 
lowerneck -6.832695 -3.124548 3.681907 
upperneck 4.086449 -4.325138 -3.472293 
head 2.328498 -2.205368 -1.931833 
rclavicle 0.000000 0.000000 
rhumerus -39.779569 -20.169857 -79.460975 
rradius 30.432869 
rwrist 28.306702 
rhand -18.730414 -16.059706 
rfingers 0.000000 
rthumb 7.565368 -45.904412 
lclavicle 0.000000 0.000000 
lhumerus -30.593635 22.733154 82.398910 
lradius 29.278565 
lwrist -48.784113 
lhand -22.971820 -0.758630 
lfingers 0.000000 
lthumb 3.470282 29.192854 
rfemur -21.040988 5.006263 21.954121 
rtibia 24.921449 
rfoot -14.522459 -0.204492 
rtoes -24.332302 
lfemur -26.608534 -6.793136 -18.612121 
ltibia 42.977285 
lfoot -16.761160 4.821409 
ltoes -24.681431 
58
root -8.127118 17.376181 -21.044837 10.140028 6.923387 0.779699
lowerback -8.422884 0.126906 -1.426209 
upperback -0.570375 0.242141 0.240577 
thorax 4.125176 0.070078 1.078703 
lowerneck -6.927980 -3.127325 3.668464 
upperneck 4.129032 -4.326874 -3.544582 
head 2.359243 -2.209522 -1.957135 
rclavicle 0.000000 0.000000 
rhumerus -39.556507 -19.920588 -79.622161 
rradius 30.631409 
rwrist 28.013837 
rhand -18.771606 -16.156986 
rfingers 0.000000 
rthumb 7.525604 -46.003097 
lclavicle 0.000000 0.000000 
lhumerus -30.958966 23.108107 82.097173 
lradius 29.130123 
lwrist -48.999886 
lhand -22.952200 -0.818919 
lfingers 0.000000 
lthumb 3.489234 29.132242 
rfemur -20.832132 4.935750 22.050598 
rtibia 24.921390 
rfoot -14.675167 -0.228490 
rtoes -24.310791 
lfemur -26.852225 -6.971796 -18.533139 
ltibia 42.589523 
lfoot -16.875446 4.949400 
ltoes -25.145613 
59
root -8.131869 17.375332 -21.002618 10.117662 7.001633 0.802931
lowerback -8.355462 0.130837 -1.448161 
upperback -0.543875 0.250539 0.236405 
thorax 4.114656 0.074567 1.087498 
lowerneck -7.003681 -3.150397 3.619664 
upperneck 4.159192 -4.355346 -3.546820 
head 2.382972 -2.225053 -1.953233 
rclavicle 0.000000 0.000000 
rhumerus -39.356996 -19.723102 -79.797762 
rradius 30.830036 
rwrist 27.788221 
rhand -18.767907 -16.213530 
rfingers 0.000000 
rthumb 7.529156 -46.059532 
lclavicle 0.000000 0.000000 
lhumerus -31.306628 23.350277 81.791474 
lradius 28.977608 
lwrist -49.153328 
lhand -22.942421 -0.883288 
lfingers 0.000000 
lthumb 3.498710 29.067732 
rfemur -20.629415 4.868117 22.091036 
rtibia 24.909692 
rfoot -14.794651 -0.236422 
rtoes -24.335526 
lfemur -27.090328 -7.090737 -18.511320 
ltibia 42.179745 
lfoot -16.941607 4.993347 
ltoes -25.068865 
